<svg width="176" height="176" xmlns="http://www.w3.org/2000/svg">

 <g>
  <title>background</title>
  <rect fill="none" id="canvas_background" height="402" width="582" y="-1" x="-1"/>
 </g>
 <g>
  <title>Layer 1</title>
  <path id="svg_1" fill="#ff8e02" d="m86.4075,16.149957c-9.82514,12.2422 -11.80684,28.177 -15.92634,43c-1.36121,4.897 -3.73072,9.253 -5.40314,14c-0.20263,-3.109 0.01863,-5.61514 0.45104,-8.70114c-28.68793,7.82984 -9.82779,11.90944 -32.44526,18.70114c-6.50258,0.138 -12.98675,1.476 -19.39044,2.586c-3.07629,0.534 -6.95438,0.703 -9.38594,2.978c-3.08792,2.889 -1.78779,7.122 -0.17839,10.436c3.09181,6.366 7.85894,12.755 14.41194,15.517c8.63747,3.641 20.86217,1.483 30.05518,1.483c4.22226,0 8.73539,-0.507 12.60378,1.573c16.70888,8.51546 8.75529,8.66586 22.81901,44.67961c-22.43134,-65.77451 12.34357,-34.38058 40.90314,-1.11645c-34.23943,-64.13067 19.14108,-14.98489 47.93524,-12.51294c-80.2412,-32.27028 -76.577069,-82.614413 -76.845441,-84.01783c-0.268372,-1.403416 -0.585889,-8.87139 -1.313999,-12.60539c-1.38157,-7.081 -3.83737,-13.911 -5.12877,-21c-0.90069,-4.9453 -0.62825,-10.6382 -3.16161,-15"/>
 </g>
</svg>